<svg width="40" height="40" viewBox="0 0 40 40" fill="none" xmlns="http://www.w3.org/2000/svg">
<g clip-path="url(#clip0_1_441)">
<path d="M38.9742 33.8809L29.082 2.75883C28.4682 0.829531 26.3995 -0.241484 24.4705 0.371484L20.8957 1.50758C20.647 1.58672 20.4113 1.69133 20.1903 1.81734C19.5518 0.731172 18.3716 0 17.0231 0H13.2731C12.308 0 11.4291 0.374844 10.7731 0.985937C10.117 0.374844 9.23829 0 8.27313 0H4.52313C2.49844 0 0.851257 1.64719 0.851257 3.67188V36.3281C0.851257 38.3528 2.49844 40 4.52313 40H8.27313C9.23829 40 10.1171 39.6252 10.7731 39.0141C11.4291 39.6251 12.308 40 13.2731 40H17.0231C19.0478 40 20.695 38.3528 20.695 36.3281V12.9954L28.4016 37.2412C28.8981 38.8021 30.3471 39.8013 31.9041 39.8013C32.2715 39.8013 32.6449 39.7456 33.0132 39.6286L36.5879 38.4925C37.5224 38.1951 38.2853 37.5517 38.7361 36.681C39.187 35.8098 39.2716 34.8152 38.9742 33.8809ZM32.954 22.678L26.8488 24.6186L23.0149 12.557L29.1202 10.6163L32.954 22.678ZM33.664 24.9116L34.4686 27.443L28.3634 29.3837L27.5588 26.8522L33.664 24.9116ZM11.945 11.1719H18.3513V23.8281H11.945V11.1719ZM9.60126 23.8281H3.19501V11.1719H9.60126V23.8281ZM3.19501 26.1719H9.60126V28.8281H3.19501V26.1719ZM11.945 26.1719H18.3513V28.8281H11.945V26.1719ZM13.2731 2.34375H17.0231C17.7555 2.34375 18.3513 2.93953 18.3513 3.67188V8.82812H11.945V3.67188C11.945 2.93953 12.5408 2.34375 13.2731 2.34375ZM4.52313 2.34375H8.27313C9.00548 2.34375 9.60126 2.93953 9.60126 3.67188V8.82812H3.19501V3.67188C3.19501 2.93953 3.79079 2.34375 4.52313 2.34375ZM8.27313 37.6562H4.52313C3.79079 37.6562 3.19501 37.0605 3.19501 36.3281V31.1719H9.60126V36.3281C9.60126 37.0605 9.00548 37.6562 8.27313 37.6562ZM17.0231 37.6562H13.2731C12.5408 37.6562 11.945 37.0605 11.945 36.3281V31.1719H18.3513V36.3281C18.3513 37.0605 17.7555 37.6562 17.0231 37.6562ZM20.695 4.81883C20.767 4.31609 21.1199 3.89578 21.6062 3.74102L25.1803 2.60508C25.8782 2.38336 26.6265 2.77109 26.8485 3.46898L28.4103 8.38266L22.3051 10.3233L20.7433 5.40977C20.7202 5.33719 20.695 4.81883 20.695 4.81883ZM36.6546 35.6034C36.4915 35.9186 36.2152 36.1514 35.8774 36.259L32.3033 37.3949C31.6057 37.6166 30.8571 37.229 30.6351 36.531L29.0733 31.6173L35.1785 29.6767L36.7406 34.5914C36.8482 34.9291 36.8177 35.2885 36.6546 35.6034Z" fill="#002B46"/>
</g>
<defs>
<clipPath id="clip0_1_441">
<rect width="40" height="40" fill="white"/>
</clipPath>
</defs>
</svg>
