<svg width="40" height="40" viewBox="0 0 40 40" fill="none" xmlns="http://www.w3.org/2000/svg">
<path d="M19.9999 0L0.615036 8.28014L9.45336 12.0679V17.1674L20 21.6873L30.5467 17.1674V12.0679L32.8904 11.0635V21.1723H35.2341V10.0591L39.385 8.28014L19.9999 0ZM19.9999 2.54854L33.4268 8.28373L19.9999 14.0381L6.57311 8.28373L19.9999 2.54854ZM28.2029 15.622L19.9999 19.1375L11.797 15.622V13.0725L19.9999 16.588L28.2029 13.0725V15.622Z" fill="#002B46"/>
<path d="M38.7493 32.8909V30.5472H36.9469C37.3471 29.8571 37.5775 29.057 37.5775 28.2035C37.5775 25.6189 35.4747 23.5161 32.8901 23.5161H1.25014V25.8598C1.8963 25.8598 2.42199 26.3855 2.42199 27.0317V29.3754C2.42199 30.0215 1.8963 30.5472 1.25014 30.5472V32.8909L3.05261 32.8901C2.65238 33.5802 2.42199 34.3811 2.42199 35.2346C2.42199 37.8044 4.49883 40.0001 7.1094 40.0001H38.7493V37.6564C38.1251 37.6564 37.5775 37.0723 37.5775 36.4065V34.0628C37.5775 33.4166 38.1032 32.8909 38.7493 32.8909ZM35.2338 28.2035C35.2338 29.4958 34.1824 30.5472 32.8901 30.5472H18.8279V25.8598H32.8901C34.1824 25.8598 35.2338 26.9112 35.2338 28.2035ZM4.56492 25.8598H16.4842V30.5472H4.56492C4.69492 30.1805 4.76569 29.7861 4.76569 29.3754V27.0317C4.76569 26.621 4.69492 26.2265 4.56492 25.8598ZM7.1094 37.6564C5.83895 37.6564 4.76569 36.5474 4.76569 35.2346C4.76569 33.9423 5.81708 32.8909 7.1094 32.8909H16.4842V35.2346H18.8279V32.8901H35.4346C35.3046 33.2568 35.2338 33.6521 35.2338 34.0628V36.4065C35.2338 36.8378 35.3104 37.2599 35.4571 37.6564H7.1094Z" fill="#002B46"/>
</svg>
