<svg width="70" height="70" viewBox="0 0 70 70" fill="none" xmlns="http://www.w3.org/2000/svg">
<path d="M63.19 37.4034V30.8984C63.19 29.7658 62.3096 28.8476 61.2235 28.8476C57.161 28.8476 53.3735 29.2051 49.7952 29.9352C47.7092 27.8345 45.1663 26.3104 42.4125 25.4774C45.4152 22.8418 47.3269 18.8957 47.3269 14.4922C47.3269 6.5011 41.1517 0 33.5614 0C25.9712 0 19.796 6.5011 19.796 14.4922C19.796 18.8957 21.7077 22.8418 24.7105 25.4772C21.9567 26.3104 19.4138 27.8345 17.3279 29.9351C13.7495 29.2051 9.96202 28.8475 5.8995 28.8475C4.81346 28.8475 3.933 29.7657 3.933 30.8982V37.4033C1.64412 38.2499 0 40.5294 0 43.2029V47.3045C0 49.978 1.64412 52.2575 3.933 53.1041V59.6091C3.933 60.7417 4.81346 61.6599 5.8995 61.6599C16.1815 61.6599 24.6248 64.2005 32.4708 69.6553C33.1283 70.1122 33.9943 70.1133 34.6525 69.6553C42.4985 64.2005 50.9416 61.6599 61.2238 61.6599C62.3098 61.6599 63.1903 60.7417 63.1903 59.6091V53.1041C65.4792 52.2575 67.1233 49.978 67.1233 47.3045V43.2029C67.123 40.5295 65.4789 38.25 63.19 37.4034ZM23.729 14.4922C23.729 8.7627 28.1398 4.10155 33.5614 4.10155C38.9831 4.10155 43.3939 8.7627 43.3939 14.4922C43.3939 20.1462 38.9831 24.746 33.5614 24.746C28.1398 24.746 23.729 20.1462 23.729 14.4922ZM5.89936 49.3554C4.81504 49.3554 3.93287 48.4354 3.93287 47.3046V43.203C3.93287 42.0722 4.81504 41.1523 5.89936 41.1523C6.98369 41.1523 7.86586 42.0722 7.86586 43.203V47.3046C7.86586 48.4354 6.98369 49.3554 5.89936 49.3554ZM31.5949 64.2693C24.4562 60.0118 16.7956 57.8599 7.86586 57.588V53.1042C10.1547 52.2576 11.7989 49.9781 11.7989 47.3046V43.203C11.7989 40.5295 10.1547 38.25 7.86586 37.4034V32.9781C17.1059 33.2547 24.5331 35.5238 31.5949 40.2127V64.2693ZM33.5614 36.6596C29.9318 34.2712 26.1538 32.4527 22.1206 31.1748C24.3367 29.6728 26.9455 28.8476 29.6284 28.8476H37.4944C40.1774 28.8476 42.7862 29.6728 45.0023 31.1748C40.9691 32.4527 37.1909 34.2712 33.5614 36.6596ZM59.257 57.588C50.3274 57.8599 42.6666 60.0123 35.5279 64.2696V40.2144C42.5899 35.5251 50.0166 33.2546 59.257 32.9781V37.4034C56.9682 38.25 55.324 40.5295 55.324 43.203V47.3046C55.324 49.9781 56.9682 52.2576 59.257 53.1042V57.588ZM63.19 47.3046C63.19 48.4354 62.3079 49.3554 61.2235 49.3554C60.1392 49.3554 59.257 48.4354 59.257 47.3046V43.203C59.257 42.0722 60.1392 41.1523 61.2235 41.1523C62.3079 41.1523 63.19 42.0722 63.19 43.203V47.3046Z" fill="#002B46"/>
</svg>
