<svg width="70" height="70" viewBox="0 0 70 70" fill="none" xmlns="http://www.w3.org/2000/svg">
<path d="M63.8477 0H34.8633C31.4709 0 28.7109 2.75994 28.7109 6.15234V20.1476L26.9086 18.3453C25.7465 17.1831 24.2015 16.543 22.5586 16.543H18.457C17.5876 16.543 11.1233 16.543 10.2539 16.543C4.5999 16.543 0 21.1429 0 26.7969C0 27.9629 0 37.4172 0 39.1016C0 42.494 2.75994 45.2539 6.15234 45.2539C6.87107 45.2539 7.5615 45.13 8.20312 44.9025V63.8477C8.20312 67.2401 10.9631 70 14.3555 70C15.9298 70 17.3678 69.4057 18.457 68.4296C19.5463 69.4057 20.9843 70 22.5586 70C25.951 70 28.7109 67.2401 28.7109 63.8477V36.7013C30.279 37.2544 32.016 37.1479 33.5133 36.4018L40.4183 32.9492H63.8477C67.2401 32.9492 70 30.1893 70 26.7969V6.15234C70 2.75994 67.2401 0 63.8477 0ZM39.8821 28.6315L31.6814 32.7318C30.9121 33.1152 29.9566 32.993 29.3117 32.3482L28.1105 31.1469C26.8423 29.8787 24.615 30.7412 24.6095 32.5906C24.6095 32.5927 24.6092 32.5946 24.6092 32.5966V63.8477C24.6092 64.9785 23.6893 65.8984 22.5585 65.8984C21.4277 65.8984 20.5077 64.9785 20.5077 63.8477V43.2031C20.5077 42.0705 19.5895 41.1523 18.4569 41.1523C17.3243 41.1523 16.4061 42.0705 16.4061 43.2031V63.8477C16.4061 64.9785 15.4861 65.8984 14.3553 65.8984C13.2245 65.8984 12.3046 64.9785 12.3046 63.8477V39.1016C12.3046 37.5553 12.3046 28.0607 12.3046 26.7969C12.3046 25.6643 11.3863 24.7461 10.2538 24.7461C9.12119 24.7461 8.20299 25.6643 8.20299 26.7969C8.20299 27.9629 8.20299 37.4172 8.20299 39.1016C8.20299 40.2324 7.28301 41.1523 6.15221 41.1523C5.02141 41.1523 4.10143 40.2324 4.10143 39.1016C4.10156 37.5553 4.10156 28.0607 4.10156 26.7969C4.10156 23.4045 6.8615 20.6445 10.2539 20.6445C11.8002 20.6445 21.2948 20.6445 22.5586 20.6445C23.106 20.6445 23.6209 20.8579 24.0084 21.2455L30.1206 27.3578C30.7446 27.982 31.6984 28.1366 32.4878 27.742L38.048 24.9618C39.0657 24.4526 40.2922 24.8642 40.7993 25.8795C41.3066 26.8941 40.8967 28.1243 39.8821 28.6315ZM65.8984 26.7969C65.8984 27.9277 64.9785 28.8477 63.8477 28.8477H44.7643C44.7768 28.8125 44.7904 28.7781 44.8022 28.7427C45.0975 27.8567 45.1861 26.9355 45.0732 26.0356L56.2882 20.4281C57.3013 19.9216 57.7119 18.6897 57.2053 17.6766C56.6988 16.6636 55.4668 16.2529 54.4538 16.7595L43.2395 22.3668C41.4427 20.6288 38.644 20.0771 36.2131 21.2937L32.8125 22.994V6.15234C32.8125 5.02154 33.7325 4.10156 34.8633 4.10156H63.8477C64.9785 4.10156 65.8984 5.02154 65.8984 6.15234V26.7969Z" fill="#002B46"/>
</svg>
