<svg width="46" height="46" viewBox="0 0 46 46" fill="none" xmlns="http://www.w3.org/2000/svg">
<path d="M30.5871 22.1006L21.0353 15.1572C20.6848 14.9031 20.2195 14.8649 19.8352 15.0623C19.448 15.2583 19.2061 15.6562 19.2061 16.0864V29.9686C19.2061 30.4033 19.448 30.7998 19.8352 30.9957C19.999 31.0784 20.1781 31.1197 20.3588 31.1197C20.5945 31.1197 20.8333 31.0447 21.0353 30.8962L30.5871 23.9589C30.8887 23.737 31.0647 23.3941 31.0647 23.0298C31.0662 22.6593 30.8856 22.318 30.5871 22.1006Z" fill="white"/>
<path d="M23.0008 0.00195312C10.2957 0.00195312 0 10.2976 0 23.0027C0 35.7032 10.2957 45.9958 23.0008 45.9958C35.7028 45.9958 46 35.7017 46 23.0027C46.0015 10.2976 35.7028 0.00195312 23.0008 0.00195312ZM23.0008 42.1583C12.4204 42.1583 3.84213 33.5847 3.84213 23.0027C3.84213 12.4254 12.4204 3.84103 23.0008 3.84103C33.5796 3.84103 42.1563 12.4238 42.1563 23.0027C42.1579 33.5847 33.5796 42.1583 23.0008 42.1583Z" fill="white"/>
</svg>
