<svg width="40" height="40" viewBox="0 0 40 40" fill="none" xmlns="http://www.w3.org/2000/svg">
<g clip-path="url(#clip0_1_447)">
<path d="M8.00053 0C4.69196 0.000703104 2.00071 2.69195 2.00071 6.00053C2.00071 9.3091 4.69196 11.9997 8.00053 11.9997C11.3091 11.9997 14.0004 9.30848 14.0004 5.9999C14.0004 2.69125 11.3091 0 8.00053 0ZM8.00053 10.0004C5.7913 10.0004 4.00065 8.20976 4.00065 6.00053C4.00065 3.7913 5.7913 2.00064 8.00053 2.00064C10.2098 2.00064 12.0004 3.7913 12.0004 6.00053C12.0004 8.20976 10.2098 10.0004 8.00053 10.0004Z" fill="#002B46"/>
<path d="M37.9996 9.99976H18.0001C16.8955 9.99976 16.0002 10.895 16.0002 11.9997V13.527L18.0001 14.527V11.9997H37.9996V27.9985H18.0001V25.6213L16.0002 25.122V27.9985C16.0002 29.1032 16.8955 29.9985 18.0001 29.9985H26.2346L21.1427 38.4843C20.8574 38.9569 21.012 39.5722 21.4867 39.8555C21.9553 40.1429 22.5726 39.9882 22.858 39.5116L26.9999 32.6078V38.9976C26.9999 39.5502 27.4472 39.9976 27.9998 39.9976C28.5525 39.9976 28.9998 39.5502 28.9998 38.9976V32.6078L33.1423 39.5109C33.3297 39.8236 33.6616 39.9969 33.9997 39.9969C34.1757 39.9969 34.353 39.9523 34.5136 39.8543C34.9883 39.5709 35.1423 38.9557 34.8576 38.483L29.7657 29.9972H37.9995C39.1041 29.9972 39.9994 29.1019 39.9994 27.9973V11.9997C39.9995 10.895 39.1042 9.99976 37.9996 9.99976Z" fill="#002B46"/>
<path d="M34.9604 15.7243C34.8097 15.1929 34.2571 14.8803 33.7244 15.039L21.3841 18.5649C21.2401 18.4256 21.0788 18.3036 20.8948 18.2109L12.895 14.211C12.6171 14.0723 12.3111 13.9997 12.0004 13.9997H4.00062C3.03401 13.9997 2.20598 14.691 2.03271 15.6417L0.0327663 26.6407C-0.0732462 27.224 0.0847961 27.8246 0.464785 28.2799C0.844774 28.7352 1.40741 28.9985 2.00076 28.9985H3.27869L4.00734 38.1563C4.08999 39.1962 4.95731 39.9975 6.00064 39.9975H10.0005C11.0198 39.9975 11.8758 39.2315 11.9884 38.2189L13.7357 22.4947L19.5156 23.9393C19.6756 23.9793 19.8382 23.9986 20.0002 23.9986C20.4415 23.9986 20.8755 23.8526 21.2309 23.5753C21.7162 23.1966 22.0002 22.6146 22.0002 21.9987V20.4674L34.2751 16.9602C34.8064 16.8095 35.1131 16.2549 34.9604 15.7243ZM20.0002 21.9994L12.0004 19.9994L10.0004 37.9983H6.00056L5.1259 26.9986H2.00068L4.00062 15.9996H7.00053V22.0834C7.00053 22.6361 7.44786 23.0834 8.0005 23.0834C8.55314 23.0834 9.00047 22.6361 9.00047 22.0834V15.9996H12.0004L20.0002 19.9994V21.9994Z" fill="#002B46"/>
</g>
<defs>
<clipPath id="clip0_1_447">
<rect width="40" height="40" fill="white"/>
</clipPath>
</defs>
</svg>
